{
  "source": "C:\\Users\\Peter\\Desktop\\stuff\\MIUN\\quantitative_research\\video_compression\\videos\\HEVC_CLASS_B\\Cactus_1920x1080_50.y4m",
  "output": "C:\\Users\\Peter\\Desktop\\stuff\\MIUN\\quantitative_research\\video_compression\\compressed_videos\\HEVC_CLASS_B\\vp9\\2\\Cactus_1920x1080_50_vp9.webm",
  "codec": "vp9",
  "ok": "Input #0, yuv4mpegpipe, from 'C:\\Users\\Peter\\Desktop\\stuff\\MIUN\\quantitative_research\\video_compression\\videos\\HEVC_CLASS_B\\Cactus_1920x1080_50.y4m':\n  Duration: 00:00:10.00, start: 0.000000, bitrate: 1244162 kb/s\n  Stream #0:0: Video: rawvideo (I420 / 0x30323449), yuv420p(progressive), 1920x1080, 50 fps, 50 tbr, 50 tbn\n[out#0/webm @ 0000020b0ca09b40] Codec AVOption b:a (set bitrate (in bits/s)) has not been used for any stream. The most likely reason is either wrong type (e.g. a video option with no video streams) or that it is a private option of some decoder which was not actually used for any stream.\nStream mapping:\n  Stream #0:0 -> #0:0 (rawvideo (native) -> vp9 (libvpx-vp9))\nPress [q] to stop, [?] for help\n[libvpx-vp9 @ 0000020b0ca0be80] v1.15.2-100-g40561f514\nOutput #0, webm, to 'C:\\Users\\Peter\\Desktop\\stuff\\MIUN\\quantitative_research\\video_compression\\compressed_videos\\HEVC_CLASS_B\\vp9\\2\\Cactus_1920x1080_50_vp9.webm':\n  Metadata:\n    encoder         : Lavf62.3.100\n  Stream #0:0: Video: vp9, yuv420p(tv, progressive), 1920x1080, q=2-31, 2000 kb/s, 50 fps, 1k tbn\n    Metadata:\n      encoder         : Lavc62.11.100 libvpx-vp9\n    Side data:\n      cpb: bitrate max/min/avg: 0/0/0 buffer size: 2000000 vbv_delay: N/A\nframe=    0 fps=0.0 q=0.0 size=       0KiB time=N/A bitrate=N/A speed=N/A elapsed=0:00:00.50    \nframe=    7 fps=6.7 q=56.0 size=       0KiB time=00:00:00.14 bitrate=  27.5kbits/s speed=0.133x elapsed=0:00:01.05    \nframe=   11 fps=7.0 q=53.0 size=       0KiB time=00:00:00.22 bitrate=  17.5kbits/s speed=0.141x elapsed=0:00:01.56    \nframe=   16 fps=7.7 q=52.0 size=       0KiB time=00:00:00.32 bitrate=  12.1kbits/s speed=0.154x elapsed=0:00:02.07    \nframe=   21 fps=8.0 q=55.0 size=       0KiB time=00:00:00.42 bitrate=   9.2kbits/s speed=0.16x elapsed=0:00:02.61    \nframe=   25 fps=7.8 q=54.0 size=       0KiB time=00:00:00.50 bitrate=   7.7kbits/s speed=0.157x elapsed=0:00:03.18    \nframe=   30 fps=8.0 q=55.0 size=       0KiB time=00:00:00.60 bitrate=   6.4kbits/s speed=0.16x elapsed=0:00:03.75    \nframe=   33 fps=7.7 q=55.0 size=       0KiB time=00:00:00.66 bitrate=   5.8kbits/s speed=0.154x elapsed=0:00:04.27    \nframe=   39 fps=8.1 q=55.0 size=       0KiB time=00:00:00.78 bitrate=   4.9kbits/s speed=0.163x elapsed=0:00:04.79    \nframe=   43 fps=8.1 q=56.0 size=       0KiB time=00:00:00.86 bitrate=   4.5kbits/s speed=0.162x elapsed=0:00:05.31    \nframe=   48 fps=8.2 q=55.0 size=       0KiB time=00:00:00.96 bitrate=   4.0kbits/s speed=0.165x elapsed=0:00:05.83    \nframe=   53 fps=8.3 q=57.0 size=       0KiB time=00:00:01.06 bitrate=   3.6kbits/s speed=0.167x elapsed=0:00:06.35    \nframe=   58 fps=8.4 q=55.0 size=       0KiB time=00:00:01.14 bitrate=   3.4kbits/s speed=0.166x elapsed=0:00:06.87    \nframe=   63 fps=8.5 q=55.0 size=       0KiB time=00:00:01.26 bitrate=   3.1kbits/s speed=0.17x elapsed=0:00:07.41    \nframe=   66 fps=8.3 q=54.0 size=       0KiB time=00:00:01.32 bitrate=   2.9kbits/s speed=0.166x elapsed=0:00:07.94    \nframe=   71 fps=8.4 q=55.0 size=       0KiB time=00:00:01.42 bitrate=   2.7kbits/s speed=0.167x elapsed=0:00:08.48    \nframe=   76 fps=8.4 q=57.0 size=       0KiB time=00:00:01.52 bitrate=   2.5kbits/s speed=0.168x elapsed=0:00:09.02    \nframe=   80 fps=8.4 q=55.0 size=       0KiB time=00:00:01.60 bitrate=   2.4kbits/s speed=0.167x elapsed=0:00:09.56    \nframe=   85 fps=8.4 q=55.0 size=       0KiB time=00:00:01.70 bitrate=   2.3kbits/s speed=0.169x elapsed=0:00:10.07    \nframe=   89 fps=8.4 q=37.0 size=       0KiB time=00:00:01.78 bitrate=   2.2kbits/s speed=0.168x elapsed=0:00:10.59    \nframe=   94 fps=8.4 q=55.0 size=       0KiB time=00:00:01.88 bitrate=   2.1kbits/s speed=0.169x elapsed=0:00:11.14    \nframe=   99 fps=8.5 q=56.0 size=       0KiB time=00:00:01.98 bitrate=   1.9kbits/s speed=0.17x elapsed=0:00:11.66    \nframe=  103 fps=8.4 q=56.0 size=       0KiB time=00:00:02.06 bitrate=   1.9kbits/s speed=0.169x elapsed=0:00:12.19    \nframe=  109 fps=8.6 q=56.0 size=       0KiB time=00:00:02.18 bitrate=   1.8kbits/s speed=0.171x elapsed=0:00:12.71    \nframe=  114 fps=8.6 q=55.0 size=       0KiB time=00:00:02.28 bitrate=   1.7kbits/s speed=0.172x elapsed=0:00:13.26    \nframe=  119 fps=8.6 q=54.0 size=       0KiB time=00:00:02.38 bitrate=   1.6kbits/s speed=0.172x elapsed=0:00:13.80    \nframe=  124 fps=8.6 q=53.0 size=       0KiB time=00:00:02.48 bitrate=   1.6kbits/s speed=0.173x elapsed=0:00:14.35    \nframe=  128 fps=8.6 q=55.0 size=       0KiB time=00:00:02.56 bitrate=   1.5kbits/s speed=0.172x elapsed=0:00:14.87    \nframe=  133 fps=8.6 q=55.0 size=     512KiB time=00:00:02.66 bitrate=1576.8kbits/s speed=0.172x elapsed=0:00:15.44    \nframe=  139 fps=8.7 q=56.0 size=     512KiB time=00:00:02.78 bitrate=1508.7kbits/s speed=0.174x elapsed=0:00:16.01    \nframe=  143 fps=8.6 q=55.0 size=     512KiB time=00:00:02.86 bitrate=1466.5kbits/s speed=0.173x elapsed=0:00:16.56    \nframe=  148 fps=8.6 q=55.0 size=     512KiB time=00:00:02.96 bitrate=1417.0kbits/s speed=0.173x elapsed=0:00:17.11    \nframe=  152 fps=8.6 q=55.0 size=     512KiB time=00:00:03.04 bitrate=1379.7kbits/s speed=0.172x elapsed=0:00:17.64    \nframe=  158 fps=8.7 q=55.0 size=     512KiB time=00:00:03.16 bitrate=1327.3kbits/s speed=0.174x elapsed=0:00:18.15    \nframe=  161 fps=8.6 q=55.0 size=     512KiB time=00:00:03.22 bitrate=1302.6kbits/s speed=0.172x elapsed=0:00:18.68    \nframe=  166 fps=8.6 q=54.0 size=     512KiB time=00:00:03.32 bitrate=1263.3kbits/s speed=0.173x elapsed=0:00:19.22    \nframe=  171 fps=8.6 q=55.0 size=     512KiB time=00:00:03.42 bitrate=1226.4kbits/s speed=0.173x elapsed=0:00:19.77    \nframe=  175 fps=8.6 q=51.0 size=     512KiB time=00:00:03.50 bitrate=1198.4kbits/s speed=0.172x elapsed=0:00:20.29    \nframe=  180 fps=8.6 q=53.0 size=     512KiB time=00:00:03.60 bitrate=1165.1kbits/s speed=0.173x elapsed=0:00:20.81    \nframe=  185 fps=8.7 q=54.0 size=     512KiB time=00:00:03.70 bitrate=1133.6kbits/s speed=0.174x elapsed=0:00:21.32    \nframe=  190 fps=8.7 q=54.0 size=     512KiB time=00:00:03.80 bitrate=1103.8kbits/s speed=0.174x elapsed=0:00:21.87    \nframe=  194 fps=8.7 q=54.0 size=     512KiB time=00:00:03.88 bitrate=1081.0kbits/s speed=0.173x elapsed=0:00:22.40    \nframe=  200 fps=8.7 q=54.0 size=     512KiB time=00:00:04.00 bitrate=1048.6kbits/s speed=0.174x elapsed=0:00:22.93    \nframe=  205 fps=8.7 q=55.0 size=     512KiB time=00:00:04.10 bitrate=1023.0kbits/s speed=0.175x elapsed=0:00:23.48    \nframe=  210 fps=8.7 q=54.0 size=     512KiB time=00:00:04.20 bitrate= 998.6kbits/s speed=0.175x elapsed=0:00:24.03    \nframe=  216 fps=8.8 q=56.0 size=     512KiB time=00:00:04.32 bitrate= 970.9kbits/s speed=0.176x elapsed=0:00:24.57    \nframe=  220 fps=8.8 q=53.0 size=     512KiB time=00:00:04.40 bitrate= 953.3kbits/s speed=0.175x elapsed=0:00:25.10    \nframe=  225 fps=8.8 q=55.0 size=     512KiB time=00:00:04.50 bitrate= 932.1kbits/s speed=0.175x elapsed=0:00:25.64    \nframe=  230 fps=8.8 q=51.0 size=     512KiB time=00:00:04.60 bitrate= 911.8kbits/s speed=0.176x elapsed=0:00:26.19    \nframe=  235 fps=8.8 q=54.0 size=     512KiB time=00:00:04.70 bitrate= 892.4kbits/s speed=0.176x elapsed=0:00:26.75    \nframe=  240 fps=8.8 q=56.0 size=     512KiB time=00:00:04.80 bitrate= 873.8kbits/s speed=0.176x elapsed=0:00:27.32    \nframe=  245 fps=8.8 q=57.0 size=     512KiB time=00:00:04.90 bitrate= 856.0kbits/s speed=0.176x elapsed=0:00:27.85    \nframe=  249 fps=8.8 q=57.0 size=     512KiB time=00:00:04.98 bitrate= 842.2kbits/s speed=0.175x elapsed=0:00:28.38    \nframe=  255 fps=8.8 q=56.0 size=     512KiB time=00:00:05.08 bitrate= 825.7kbits/s speed=0.176x elapsed=0:00:28.90    \nframe=  258 fps=8.8 q=55.0 size=    1280KiB time=00:00:05.16 bitrate=2032.1kbits/s speed=0.175x elapsed=0:00:29.44    \nframe=  264 fps=8.8 q=55.0 size=    1280KiB time=00:00:05.28 bitrate=1985.9kbits/s speed=0.176x elapsed=0:00:29.96    \nframe=  269 fps=8.8 q=55.0 size=    1280KiB time=00:00:05.38 bitrate=1949.0kbits/s speed=0.176x elapsed=0:00:30.53    \nframe=  274 fps=8.8 q=55.0 size=    1280KiB time=00:00:05.48 bitrate=1913.5kbits/s speed=0.176x elapsed=0:00:31.06    \nframe=  278 fps=8.8 q=55.0 size=    1280KiB time=00:00:05.56 bitrate=1885.9kbits/s speed=0.176x elapsed=0:00:31.59    \nframe=  284 fps=8.8 q=51.0 size=    1280KiB time=00:00:05.68 bitrate=1846.1kbits/s speed=0.177x elapsed=0:00:32.12    \nframe=  289 fps=8.8 q=52.0 size=    1280KiB time=00:00:05.78 bitrate=1814.1kbits/s speed=0.177x elapsed=0:00:32.67    \nframe=  293 fps=8.8 q=52.0 size=    1280KiB time=00:00:05.86 bitrate=1789.4kbits/s speed=0.176x elapsed=0:00:33.23    \nframe=  298 fps=8.8 q=54.0 size=    1280KiB time=00:00:05.96 bitrate=1759.4kbits/s speed=0.177x elapsed=0:00:33.76    \nframe=  302 fps=8.8 q=55.0 size=    1280KiB time=00:00:06.04 bitrate=1736.1kbits/s speed=0.176x elapsed=0:00:34.27    \nframe=  307 fps=8.8 q=54.0 size=    1280KiB time=00:00:06.14 bitrate=1707.8kbits/s speed=0.176x elapsed=0:00:34.81    \nframe=  311 fps=8.8 q=54.0 size=    1280KiB time=00:00:06.22 bitrate=1685.8kbits/s speed=0.176x elapsed=0:00:35.34    \nframe=  317 fps=8.8 q=54.0 size=    1280KiB time=00:00:06.34 bitrate=1653.9kbits/s speed=0.177x elapsed=0:00:35.90    \nframe=  321 fps=8.8 q=55.0 size=    1280KiB time=00:00:06.42 bitrate=1633.3kbits/s speed=0.176x elapsed=0:00:36.46    \nframe=  325 fps=8.8 q=55.0 size=    1280KiB time=00:00:06.50 bitrate=1613.2kbits/s speed=0.176x elapsed=0:00:36.98    \nframe=  330 fps=8.8 q=56.0 size=    1280KiB time=00:00:06.60 bitrate=1588.8kbits/s speed=0.176x elapsed=0:00:37.49    \nframe=  335 fps=8.8 q=56.0 size=    1280KiB time=00:00:06.70 bitrate=1565.0kbits/s speed=0.176x elapsed=0:00:38.04    \nframe=  340 fps=8.8 q=52.0 size=    1280KiB time=00:00:06.80 bitrate=1542.0kbits/s speed=0.176x elapsed=0:00:38.58    \nframe=  344 fps=8.8 q=54.0 size=    1280KiB time=00:00:06.88 bitrate=1524.1kbits/s speed=0.176x elapsed=0:00:39.08    \nframe=  348 fps=8.8 q=54.0 size=    1280KiB time=00:00:06.96 bitrate=1506.6kbits/s speed=0.176x elapsed=0:00:39.62    \nframe=  353 fps=8.8 q=57.0 size=    1280KiB time=00:00:07.06 bitrate=1485.2kbits/s speed=0.176x elapsed=0:00:40.15    \nframe=  356 fps=8.7 q=37.0 size=    1280KiB time=00:00:07.12 bitrate=1472.7kbits/s speed=0.175x elapsed=0:00:40.71    \nframe=  361 fps=8.8 q=56.0 size=    1280KiB time=00:00:07.22 bitrate=1452.3kbits/s speed=0.175x elapsed=0:00:41.23    \nframe=  366 fps=8.8 q=56.0 size=    1280KiB time=00:00:07.32 bitrate=1432.5kbits/s speed=0.175x elapsed=0:00:41.74    \nframe=  370 fps=8.8 q=56.0 size=    1280KiB time=00:00:07.40 bitrate=1417.0kbits/s speed=0.175x elapsed=0:00:42.27    \nframe=  375 fps=8.8 q=56.0 size=    1280KiB time=00:00:07.50 bitrate=1398.1kbits/s speed=0.175x elapsed=0:00:42.80    \nframe=  380 fps=8.8 q=56.0 size=    1280KiB time=00:00:07.60 bitrate=1379.7kbits/s speed=0.175x elapsed=0:00:43.35    \nframe=  384 fps=8.7 q=57.0 size=    1280KiB time=00:00:07.68 bitrate=1365.3kbits/s speed=0.175x elapsed=0:00:43.90    \nframe=  389 fps=8.7 q=55.0 size=    1792KiB time=00:00:07.78 bitrate=1886.9kbits/s speed=0.175x elapsed=0:00:44.46    \nframe=  394 fps=8.8 q=54.0 size=    1792KiB time=00:00:07.88 bitrate=1863.0kbits/s speed=0.175x elapsed=0:00:44.98    \nframe=  398 fps=8.7 q=52.0 size=    1792KiB time=00:00:07.96 bitrate=1844.2kbits/s speed=0.175x elapsed=0:00:45.49    \nframe=  403 fps=8.8 q=55.0 size=    1792KiB time=00:00:08.06 bitrate=1821.3kbits/s speed=0.175x elapsed=0:00:46.02    \nframe=  406 fps=8.7 q=56.0 size=    1792KiB time=00:00:08.12 bitrate=1807.9kbits/s speed=0.174x elapsed=0:00:46.54    \nframe=  412 fps=8.8 q=55.0 size=    1792KiB time=00:00:08.24 bitrate=1781.6kbits/s speed=0.175x elapsed=0:00:47.06    \nframe=  417 fps=8.8 q=56.0 size=    1792KiB time=00:00:08.34 bitrate=1760.2kbits/s speed=0.175x elapsed=0:00:47.58    \nframe=  421 fps=8.7 q=55.0 size=    1792KiB time=00:00:08.42 bitrate=1743.5kbits/s speed=0.175x elapsed=0:00:48.14    \nframe=  426 fps=8.8 q=55.0 size=    1792KiB time=00:00:08.52 bitrate=1723.0kbits/s speed=0.175x elapsed=0:00:48.67    \nframe=  430 fps=8.7 q=55.0 size=    1792KiB time=00:00:08.60 bitrate=1707.0kbits/s speed=0.175x elapsed=0:00:49.19    \nframe=  436 fps=8.8 q=57.0 size=    1792KiB time=00:00:08.70 bitrate=1687.4kbits/s speed=0.175x elapsed=0:00:49.73    \nframe=  439 fps=8.7 q=57.0 size=    1792KiB time=00:00:08.78 bitrate=1672.0kbits/s speed=0.175x elapsed=0:00:50.27    \nframe=  444 fps=8.7 q=55.0 size=    1792KiB time=00:00:08.88 bitrate=1653.2kbits/s speed=0.175x elapsed=0:00:50.80    \nframe=  449 fps=8.7 q=54.0 size=    1792KiB time=00:00:08.98 bitrate=1634.8kbits/s speed=0.175x elapsed=0:00:51.32    \nframe=  453 fps=8.7 q=52.0 size=    1792KiB time=00:00:09.06 bitrate=1620.3kbits/s speed=0.175x elapsed=0:00:51.84    \nframe=  458 fps=8.7 q=55.0 size=    1792KiB time=00:00:09.16 bitrate=1602.6kbits/s speed=0.175x elapsed=0:00:52.38    \nframe=  462 fps=8.7 q=36.0 size=    1792KiB time=00:00:09.24 bitrate=1588.8kbits/s speed=0.175x elapsed=0:00:52.90    \nframe=  468 fps=8.8 q=56.0 size=    1792KiB time=00:00:09.36 bitrate=1568.4kbits/s speed=0.175x elapsed=0:00:53.41    \nframe=  472 fps=8.7 q=56.0 size=    1792KiB time=00:00:09.44 bitrate=1555.1kbits/s speed=0.175x elapsed=0:00:53.97    \nframe=  476 fps=8.7 q=54.0 size=    1792KiB time=00:00:09.52 bitrate=1542.0kbits/s speed=0.175x elapsed=0:00:54.51    \nframe=  476 fps=8.6 q=54.0 size=    1792KiB time=00:00:09.52 bitrate=1542.0kbits/s speed=0.173x elapsed=0:00:55.07    \nframe=  476 fps=8.6 q=54.0 size=    1792KiB time=00:00:09.52 bitrate=1542.0kbits/s speed=0.171x elapsed=0:00:55.60    \nframe=  476 fps=8.5 q=54.0 size=    1792KiB time=00:00:09.52 bitrate=1542.0kbits/s speed=0.17x elapsed=0:00:56.14    \nframe=  476 fps=8.4 q=54.0 size=    1792KiB time=00:00:09.52 bitrate=1542.0kbits/s speed=0.168x elapsed=0:00:56.68    \n[out#0/webm @ 0000020b0ca09b40] video:2659KiB audio:0KiB subtitle:0KiB other streams:0KiB global headers:0KiB muxing overhead: 0.152406%\nframe=  500 fps=8.8 q=54.0 Lsize=    2663KiB time=00:00:10.00 bitrate=2181.7kbits/s speed=0.176x elapsed=0:00:56.91    \n",
  "seconds": 57.0611047744751,
  "probe_out": {}
}